<svg width="97" height="97" viewBox="0 0 97 97" fill="none" xmlns="http://www.w3.org/2000/svg">
<path d="M35.7031 43.2121C36.259 42.8912 36.7206 42.4295 37.0415 41.8735C37.3625 41.3175 37.5313 40.6869 37.5312 40.0449V7.13867C37.5279 6.55575 37.3853 5.98206 37.1153 5.46544C36.8453 4.94883 36.4556 4.50427 35.9789 4.16884C35.5021 3.83341 34.9521 3.61684 34.3746 3.53718C33.7971 3.45753 33.209 3.5171 32.6592 3.71094C21.9875 7.48791 13.0129 14.9477 7.34892 24.7493C1.68493 34.5509 -0.297023 46.0515 1.75935 57.1836C1.86594 57.7593 2.10921 58.3009 2.46869 58.763C2.82817 59.2251 3.29336 59.5941 3.82513 59.8389C4.30435 60.063 4.82716 60.1785 5.35619 60.1771C5.99792 60.1774 6.62841 60.0087 7.18431 59.6881L35.7031 43.2121ZM30.2187 12.6779V37.9334L8.33603 50.5612C8.28119 49.8711 8.28119 49.1764 8.28119 48.5C8.28767 41.0886 10.3392 33.8227 14.2098 27.5023C18.0804 21.182 23.62 16.0522 30.2187 12.6779ZM96.0312 48.5C96.0348 58.9346 92.6046 69.0805 86.2699 77.3721C79.9352 85.6638 71.0479 91.6406 60.9794 94.3802C50.9109 97.1198 40.2206 96.4701 30.5579 92.5313C20.8953 88.5924 12.7973 81.5834 7.51337 72.5855C7.26706 72.1699 7.10555 71.7096 7.03818 71.2312C6.97082 70.7528 6.99893 70.2658 7.1209 69.7984C7.24286 69.3309 7.45627 68.8922 7.74877 68.5077C8.04128 68.1232 8.40708 67.8005 8.82505 67.5582L44.8437 46.5942V4.625C44.8437 3.6553 45.2289 2.72532 45.9146 2.03964C46.6003 1.35396 47.5302 0.96875 48.4999 0.96875C56.7945 0.972982 64.9436 3.14666 72.1384 7.27398C79.3331 11.4013 85.3232 17.3387 89.5139 24.4967C89.5642 24.5698 89.6099 24.643 89.6556 24.7207C89.7013 24.7984 89.747 24.8898 89.7881 24.972C93.8892 32.1345 96.0417 40.2466 96.0312 48.5Z" fill="#1D154A"/>
</svg>
